<?xml version="1.0" encoding="UTF-8"?>
<svg xmlns="http://www.w3.org/2000/svg" xmlns:xlink="http://www.w3.org/1999/xlink" viewBox="0 0 48 48" width="48px" height="48px">
<g id="surface13810348">
<path style=" stroke:none;fill-rule:nonzero;fill:rgb(100%,100%,100%);fill-opacity:1;" d="M 24 7.5 C 14.886719 7.5 7.5 14.886719 7.5 24 C 7.5 33.113281 14.886719 40.5 24 40.5 C 33.113281 40.5 40.5 33.113281 40.5 24 C 40.5 14.886719 33.113281 7.5 24 7.5 Z M 24 10.5 C 31.457031 10.5 37.5 16.542969 37.5 24 C 37.5 31.457031 31.457031 37.5 24 37.5 C 16.542969 37.5 10.5 31.457031 10.5 24 C 10.5 16.542969 16.542969 10.5 24 10.5 Z M 19.226562 17.726562 C 18.84375 17.726562 18.460938 17.875 18.167969 18.167969 C 17.582031 18.753906 17.582031 19.703125 18.167969 20.289062 L 21.878906 24 L 18.167969 27.710938 C 17.582031 28.296875 17.582031 29.246094 18.167969 29.832031 C 18.753906 30.417969 19.703125 30.417969 20.289062 29.832031 L 24 26.121094 L 27.710938 29.832031 C 28.296875 30.417969 29.246094 30.417969 29.832031 29.832031 C 30.417969 29.246094 30.417969 28.296875 29.832031 27.710938 L 26.121094 24 L 29.832031 20.289062 C 30.417969 19.703125 30.417969 18.753906 29.832031 18.167969 C 29.246094 17.582031 28.296875 17.582031 27.710938 18.167969 L 24 21.878906 L 20.289062 18.167969 C 19.996094 17.875 19.613281 17.726562 19.226562 17.726562 Z M 19.226562 17.726562 "/>
</g>
</svg>
