<?xml version="1.0" encoding="UTF-8"?>
<svg xmlns="http://www.w3.org/2000/svg" xmlns:xlink="http://www.w3.org/1999/xlink" viewBox="0 0 32 32" width="32px" height="32px">
<g id="surface13046115">
<path style=" stroke:none;fill-rule:nonzero;fill:rgb(100%,100%,100%);fill-opacity:1;" d="M 16 5 C 9.925781 5 5 9.925781 5 16 C 5 22.074219 9.925781 27 16 27 C 22.074219 27 27 22.074219 27 16 C 27 9.925781 22.074219 5 16 5 Z M 16 7 C 20.96875 7 25 11.03125 25 16 C 25 20.96875 20.96875 25 16 25 C 11.03125 25 7 20.96875 7 16 C 7 11.03125 11.03125 7 16 7 Z M 16 11 C 15.449219 11 15 11.449219 15 12 L 15 15 L 12 15 C 11.449219 15 11 15.449219 11 16 C 11 16.550781 11.449219 17 12 17 L 15 17 L 15 20 C 15 20.550781 15.449219 21 16 21 C 16.550781 21 17 20.550781 17 20 L 17 17 L 20 17 C 20.550781 17 21 16.550781 21 16 C 21 15.449219 20.550781 15 20 15 L 17 15 L 17 12 C 17 11.449219 16.550781 11 16 11 Z M 16 11 "/>
</g>
</svg>
