<?xml version="1.0" encoding="UTF-8"?>
<svg xmlns="http://www.w3.org/2000/svg" xmlns:xlink="http://www.w3.org/1999/xlink" viewBox="0 0 32 32" width="32px" height="32px">
<g id="surface13040970">
<path style=" stroke:none;fill-rule:nonzero;fill:rgb(100%,100%,100%);fill-opacity:1;" d="M 16 5 C 9.925781 5 5 9.925781 5 16 C 5 22.074219 9.925781 27 16 27 C 22.074219 27 27 22.074219 27 16 C 27 9.925781 22.074219 5 16 5 Z M 16 7 C 20.96875 7 25 11.03125 25 16 C 25 20.96875 20.96875 25 16 25 C 11.03125 25 7 20.96875 7 16 C 7 11.03125 11.03125 7 16 7 Z M 16 10.5 C 15.171875 10.5 14.5 11.171875 14.5 12 C 14.5 12.828125 15.171875 13.5 16 13.5 C 16.828125 13.5 17.5 12.828125 17.5 12 C 17.5 11.171875 16.828125 10.5 16 10.5 Z M 16 15 C 15.449219 15 15 15.449219 15 16 L 15 21 C 15 21.550781 15.449219 22 16 22 C 16.550781 22 17 21.550781 17 21 L 17 16 C 17 15.449219 16.550781 15 16 15 Z M 16 15 "/>
</g>
</svg>
